ISO-10303-21;
HEADER;
FILE_DESCRIPTION(('Open CASCADE Model'),'2;1');
FILE_NAME('Shaft_Retainer','2026-04-19T18:11:22',('Author'),(
    'Open CASCADE'),'Open CASCADE STEP processor 7.8','build123d',
  'Unknown');
FILE_SCHEMA(('AUTOMOTIVE_DESIGN { 1 0 10303 214 1 1 1 1 }'));
ENDSEC;
DATA;
#1 = APPLICATION_PROTOCOL_DEFINITION('international standard',
  'automotive_design',2000,#2);
#2 = APPLICATION_CONTEXT(
  'core data for automotive mechanical design processes');
#3 = SHAPE_DEFINITION_REPRESENTATION(#4,#10);
#4 = PRODUCT_DEFINITION_SHAPE('','',#5);
#5 = PRODUCT_DEFINITION('design','',#6,#9);
#6 = PRODUCT_DEFINITION_FORMATION('','',#7);
#7 = PRODUCT('=>[0:1:1:2]','=>[0:1:1:2]','',(#8));
#8 = PRODUCT_CONTEXT('',#2,'mechanical');
#9 = PRODUCT_DEFINITION_CONTEXT('part definition',#2,'design');
#10 = SHAPE_REPRESENTATION('',(#11,#15),#19);
#11 = AXIS2_PLACEMENT_3D('',#12,#13,#14);
#12 = CARTESIAN_POINT('',(0.,0.,0.));
#13 = DIRECTION('',(0.,0.,1.));
#14 = DIRECTION('',(1.,0.,-0.));
#15 = AXIS2_PLACEMENT_3D('',#16,#17,#18);
#16 = CARTESIAN_POINT('',(0.,0.,0.));
#17 = DIRECTION('',(0.,0.,1.));
#18 = DIRECTION('',(1.,0.,0.));
#19 = ( GEOMETRIC_REPRESENTATION_CONTEXT(3) 
GLOBAL_UNCERTAINTY_ASSIGNED_CONTEXT((#23)) GLOBAL_UNIT_ASSIGNED_CONTEXT(
(#20,#21,#22)) REPRESENTATION_CONTEXT('Context #1',
  '3D Context with UNIT and UNCERTAINTY') );
#20 = ( LENGTH_UNIT() NAMED_UNIT(*) SI_UNIT(.MILLI.,.METRE.) );
#21 = ( NAMED_UNIT(*) PLANE_ANGLE_UNIT() SI_UNIT($,.RADIAN.) );
#22 = ( NAMED_UNIT(*) SI_UNIT($,.STERADIAN.) SOLID_ANGLE_UNIT() );
#23 = UNCERTAINTY_MEASURE_WITH_UNIT(LENGTH_MEASURE(2.E-04),#20,
  'distance_accuracy_value','confusion accuracy');
#24 = PRODUCT_RELATED_PRODUCT_CATEGORY('part',$,(#7));
#25 = SHAPE_DEFINITION_REPRESENTATION(#26,#32);
#26 = PRODUCT_DEFINITION_SHAPE('','',#27);
#27 = PRODUCT_DEFINITION('design','',#28,#31);
#28 = PRODUCT_DEFINITION_FORMATION('','',#29);
#29 = PRODUCT('Shaft_Retainer','Shaft_Retainer','',(#30));
#30 = PRODUCT_CONTEXT('',#2,'mechanical');
#31 = PRODUCT_DEFINITION_CONTEXT('part definition',#2,'design');
#32 = ADVANCED_BREP_SHAPE_REPRESENTATION('',(#11,#33),#851);
#33 = MANIFOLD_SOLID_BREP('',#34);
#34 = CLOSED_SHELL('',(#35,#623,#739,#837,#844));
#35 = ADVANCED_FACE('',(#36),#65,.F.);
#36 = FACE_BOUND('',#37,.F.);
#37 = EDGE_LOOP('',(#38,#176,#199,#330,#404,#476,#477,#551));
#38 = ORIENTED_EDGE('',*,*,#39,.T.);
#39 = EDGE_CURVE('',#40,#42,#44,.T.);
#40 = VERTEX_POINT('',#41);
#41 = CARTESIAN_POINT('',(25.,53.,-140.));
#42 = VERTEX_POINT('',#43);
#43 = CARTESIAN_POINT('',(22.,53.,-140.));
#44 = SURFACE_CURVE('',#45,(#64,#120),.PCURVE_S1.);
#45 = B_SPLINE_CURVE_WITH_KNOTS('',3,(#46,#47,#48,#49,#50,#51,#52,#53,
    #54,#55,#56,#57,#58,#59,#60,#61,#62,#63),.UNSPECIFIED.,.F.,.F.,(4,2,
    2,2,2,2,2,2,4),(0.22677050999,0.283461032271,0.340151554553,
    0.396846287266,0.45354101998,0.510235752694,0.566930485408,
    0.623621007689,0.68031152997),.UNSPECIFIED.);
#46 = CARTESIAN_POINT('',(25.,53.,-140.));
#47 = CARTESIAN_POINT('',(25.,53.,-140.1889684076));
#48 = CARTESIAN_POINT('',(24.962114935446,53.008423698143,
    -140.3901367372));
#49 = CARTESIAN_POINT('',(24.808850417572,53.038861548533,
    -140.7595375698));
#50 = CARTESIAN_POINT('',(24.69350288559,53.060459911698,-140.9278174579
    ));
#51 = CARTESIAN_POINT('',(24.427807591676,53.101189097636,
    -141.1935127518));
#52 = CARTESIAN_POINT('',(24.259531872154,53.123008187253,
    -141.3088525642));
#53 = CARTESIAN_POINT('',(23.890145604723,53.153954310034,
    -141.4621114736));
#54 = CARTESIAN_POINT('',(23.688982442379,53.162602834411,-141.5));
#55 = CARTESIAN_POINT('',(23.31101755762,53.162602834411,-141.5));
#56 = CARTESIAN_POINT('',(23.109854395276,53.153954310034,
    -141.4621114736));
#57 = CARTESIAN_POINT('',(22.740468127846,53.123008187253,
    -141.3088525642));
#58 = CARTESIAN_POINT('',(22.572192408324,53.101189097636,
    -141.1935127518));
#59 = CARTESIAN_POINT('',(22.306497114409,53.060459911698,
    -140.9278174579));
#60 = CARTESIAN_POINT('',(22.191149582428,53.038861548533,
    -140.7595375698));
#61 = CARTESIAN_POINT('',(22.037885064554,53.008423698143,
    -140.3901367372));
#62 = CARTESIAN_POINT('',(22.,53.,-140.1889684076));
#63 = CARTESIAN_POINT('',(22.,53.,-140.));
#64 = PCURVE('',#65,#70);
#65 = CYLINDRICAL_SURFACE('',#66,1.5);
#66 = AXIS2_PLACEMENT_3D('',#67,#68,#69);
#67 = CARTESIAN_POINT('',(23.5,0.,-140.));
#68 = DIRECTION('',(0.,1.,0.));
#69 = DIRECTION('',(1.,0.,0.));
#70 = DEFINITIONAL_REPRESENTATION('',(#71),#119);
#71 = B_SPLINE_CURVE_WITH_KNOTS('',3,(#72,#73,#74,#75,#76,#77,#78,#79,
    #80,#81,#82,#83,#84,#85,#86,#87,#88,#89,#90,#91,#92,#93,#94,#95,#96,
    #97,#98,#99,#100,#101,#102,#103,#104,#105,#106,#107,#108,#109,#110,
    #111,#112,#113,#114,#115,#116,#117,#118),.UNSPECIFIED.,.F.,.F.,(4,1,
    1,1,1,1,1,1,1,1,1,1,1,1,1,1,1,1,1,1,1,1,1,1,1,1,1,1,1,1,1,1,1,1,1,1,
    1,1,1,1,1,1,1,1,4),(0.22677050999,0.237078260444,0.247386010898,
    0.257693761352,0.268001511807,0.278309262261,0.288617012715,
    0.298924763169,0.309232513623,0.319540264077,0.329848014531,
    0.340155764985,0.350463515439,0.360771265893,0.371079016348,
    0.381386766802,0.391694517256,0.40200226771,0.412310018164,
    0.422617768618,0.432925519072,0.443233269526,0.45354101998,
    0.463848770434,0.474156520888,0.484464271343,0.494772021797,
    0.505079772251,0.515387522705,0.525695273159,0.536003023613,
    0.546310774067,0.556618524521,0.566926274975,0.577234025429,
    0.587541775884,0.597849526338,0.608157276792,0.618465027246,
    0.6287727777,0.639080528154,0.649388278608,0.659696029062,
    0.670003779516,0.68031152997),.QUASI_UNIFORM_KNOTS.);
#72 = CARTESIAN_POINT('',(6.28318530718,53.));
#73 = CARTESIAN_POINT('',(6.306090260304,53.));
#74 = CARTESIAN_POINT('',(6.35244288985,53.000556957298));
#75 = CARTESIAN_POINT('',(6.423262425916,53.003004735948));
#76 = CARTESIAN_POINT('',(6.495035300528,53.007005507767));
#77 = CARTESIAN_POINT('',(6.567423123174,53.012502794432));
#78 = CARTESIAN_POINT('',(6.640116215199,53.019429453115));
#79 = CARTESIAN_POINT('',(6.712858049262,53.027758127793));
#80 = CARTESIAN_POINT('',(6.785461035414,53.037224053649));
#81 = CARTESIAN_POINT('',(6.85768920104,53.047542258182));
#82 = CARTESIAN_POINT('',(6.929198196103,53.058434858134));
#83 = CARTESIAN_POINT('',(6.999808845233,53.069650676056));
#84 = CARTESIAN_POINT('',(7.068611270038,53.080824622025));
#85 = CARTESIAN_POINT('',(7.137414335459,53.092020550471));
#86 = CARTESIAN_POINT('',(7.208021526631,53.103294730171));
#87 = CARTESIAN_POINT('',(7.27952521197,53.114275660337));
#88 = CARTESIAN_POINT('',(7.35174647803,53.124705559834));
#89 = CARTESIAN_POINT('',(7.424341502862,53.134299538477));
#90 = CARTESIAN_POINT('',(7.497075501484,53.142767422628));
#91 = CARTESIAN_POINT('',(7.569759191701,53.149823013688));
#92 = CARTESIAN_POINT('',(7.642146873592,53.155433338973));
#93 = CARTESIAN_POINT('',(7.713889653388,53.159523837973));
#94 = CARTESIAN_POINT('',(7.784797564558,53.16203109743));
#95 = CARTESIAN_POINT('',(7.853981633974,53.162888702902));
#96 = CARTESIAN_POINT('',(7.923165703391,53.16203109743));
#97 = CARTESIAN_POINT('',(7.994073614561,53.159523837973));
#98 = CARTESIAN_POINT('',(8.065816394357,53.155433338973));
#99 = CARTESIAN_POINT('',(8.138204076248,53.149823013688));
#100 = CARTESIAN_POINT('',(8.210887766465,53.142767422628));
#101 = CARTESIAN_POINT('',(8.283621765087,53.134299538477));
#102 = CARTESIAN_POINT('',(8.356216789919,53.124705559834));
#103 = CARTESIAN_POINT('',(8.428438055979,53.114275660337));
#104 = CARTESIAN_POINT('',(8.499941741318,53.103294730171));
#105 = CARTESIAN_POINT('',(8.57054893249,53.092020550471));
#106 = CARTESIAN_POINT('',(8.639351997911,53.080824622025));
#107 = CARTESIAN_POINT('',(8.708154422716,53.069650676056));
#108 = CARTESIAN_POINT('',(8.778765071846,53.058434858134));
#109 = CARTESIAN_POINT('',(8.850274066909,53.047542258182));
#110 = CARTESIAN_POINT('',(8.922502232535,53.037224053649));
#111 = CARTESIAN_POINT('',(8.995105218687,53.027758127793));
#112 = CARTESIAN_POINT('',(9.06784705275,53.019429453115));
#113 = CARTESIAN_POINT('',(9.140540144775,53.012502794432));
#114 = CARTESIAN_POINT('',(9.212927967421,53.007005507767));
#115 = CARTESIAN_POINT('',(9.284700842033,53.003004735948));
#116 = CARTESIAN_POINT('',(9.355520378099,53.000556957298));
#117 = CARTESIAN_POINT('',(9.401873007645,53.));
#118 = CARTESIAN_POINT('',(9.424777960769,53.));
#119 = ( GEOMETRIC_REPRESENTATION_CONTEXT(2) 
PARAMETRIC_REPRESENTATION_CONTEXT() REPRESENTATION_CONTEXT('2D SPACE',''
  ) );
#120 = PCURVE('',#121,#126);
#121 = CYLINDRICAL_SURFACE('',#122,7.);
#122 = AXIS2_PLACEMENT_3D('',#123,#124,#125);
#123 = CARTESIAN_POINT('',(20.,60.,-140.));
#124 = DIRECTION('',(1.,0.,0.));
#125 = DIRECTION('',(-0.,1.,0.));
#126 = DEFINITIONAL_REPRESENTATION('',(#127),#175);
#127 = B_SPLINE_CURVE_WITH_KNOTS('',3,(#128,#129,#130,#131,#132,#133,
    #134,#135,#136,#137,#138,#139,#140,#141,#142,#143,#144,#145,#146,
    #147,#148,#149,#150,#151,#152,#153,#154,#155,#156,#157,#158,#159,
    #160,#161,#162,#163,#164,#165,#166,#167,#168,#169,#170,#171,#172,
    #173,#174),.UNSPECIFIED.,.F.,.F.,(4,1,1,1,1,1,1,1,1,1,1,1,1,1,1,1,1,
    1,1,1,1,1,1,1,1,1,1,1,1,1,1,1,1,1,1,1,1,1,1,1,1,1,1,1,4),(
    0.22677050999,0.237078260444,0.247386010898,0.257693761352,
    0.268001511807,0.278309262261,0.288617012715,0.298924763169,
    0.309232513623,0.319540264077,0.329848014531,0.340155764985,
    0.350463515439,0.360771265893,0.371079016348,0.381386766802,
    0.391694517256,0.40200226771,0.412310018164,0.422617768618,
    0.432925519072,0.443233269526,0.45354101998,0.463848770434,
    0.474156520888,0.484464271343,0.494772021797,0.505079772251,
    0.515387522705,0.525695273159,0.536003023613,0.546310774067,
    0.556618524521,0.566926274975,0.577234025429,0.587541775884,
    0.597849526338,0.608157276792,0.618465027246,0.6287727777,
    0.639080528154,0.649388278608,0.659696029062,0.670003779516,
    0.68031152997),.QUASI_UNIFORM_KNOTS.);
#128 = CARTESIAN_POINT('',(-3.14159265359,5.));
#129 = CARTESIAN_POINT('',(-3.136684249357,5.));
#130 = CARTESIAN_POINT('',(-3.126752008248,4.997495075578));
#131 = CARTESIAN_POINT('',(-3.111651993534,4.986191287697));
#132 = CARTESIAN_POINT('',(-3.096494696745,4.967311604328));
#133 = CARTESIAN_POINT('',(-3.081425447508,4.94081906313));
#134 = CARTESIAN_POINT('',(-3.066587940729,4.906704440424));
#135 = CARTESIAN_POINT('',(-3.052131330534,4.864855025987));
#136 = CARTESIAN_POINT('',(-3.038176438918,4.815648747297));
#137 = CARTESIAN_POINT('',(-3.024815513694,4.759918590148));
#138 = CARTESIAN_POINT('',(-3.012155564374,4.698452082158));
#139 = CARTESIAN_POINT('',(-3.000273038027,4.631858213562));
#140 = CARTESIAN_POINT('',(-2.989356166514,4.561505582307));
#141 = CARTESIAN_POINT('',(-2.979179977993,4.485902891099));
#142 = CARTESIAN_POINT('',(-2.96953232457,4.403484454393));
#143 = CARTESIAN_POINT('',(-2.960613649563,4.315539381823));
#144 = CARTESIAN_POINT('',(-2.952515342916,4.222588895708));
#145 = CARTESIAN_POINT('',(-2.945354842318,4.12537097244));
#146 = CARTESIAN_POINT('',(-2.939256320537,4.024524459449));
#147 = CARTESIAN_POINT('',(-2.934280456076,3.920903660317));
#148 = CARTESIAN_POINT('',(-2.93041243124,3.815561222479));
#149 = CARTESIAN_POINT('',(-2.927653086363,3.709579732138));
#150 = CARTESIAN_POINT('',(-2.925999172044,3.603774917135));
#151 = CARTESIAN_POINT('',(-2.925448646336,3.5));
#152 = CARTESIAN_POINT('',(-2.925999172044,3.396225082865));
#153 = CARTESIAN_POINT('',(-2.927653086363,3.290420267862));
#154 = CARTESIAN_POINT('',(-2.93041243124,3.184438777521));
#155 = CARTESIAN_POINT('',(-2.934280456076,3.079096339683));
#156 = CARTESIAN_POINT('',(-2.939256320537,2.975475540551));
#157 = CARTESIAN_POINT('',(-2.945354842318,2.874629027561));
#158 = CARTESIAN_POINT('',(-2.952515342916,2.777411104292));
#159 = CARTESIAN_POINT('',(-2.960613649563,2.684460618178));
#160 = CARTESIAN_POINT('',(-2.96953232457,2.596515545607));
#161 = CARTESIAN_POINT('',(-2.979179977993,2.514097108901));
#162 = CARTESIAN_POINT('',(-2.989356166514,2.438494417693));
#163 = CARTESIAN_POINT('',(-3.000273038027,2.368141786438));
#164 = CARTESIAN_POINT('',(-3.012155564374,2.301547917842));
#165 = CARTESIAN_POINT('',(-3.024815513694,2.240081409852));
#166 = CARTESIAN_POINT('',(-3.038176438918,2.184351252703));
#167 = CARTESIAN_POINT('',(-3.052131330534,2.135144974013));
#168 = CARTESIAN_POINT('',(-3.066587940729,2.093295559577));
#169 = CARTESIAN_POINT('',(-3.081425447508,2.05918093687));
#170 = CARTESIAN_POINT('',(-3.096494696745,2.032688395672));
#171 = CARTESIAN_POINT('',(-3.111651993534,2.013808712303));
#172 = CARTESIAN_POINT('',(-3.126752008248,2.002504924422));
#173 = CARTESIAN_POINT('',(-3.136684249357,2.));
#174 = CARTESIAN_POINT('',(-3.14159265359,2.));
#175 = ( GEOMETRIC_REPRESENTATION_CONTEXT(2) 
PARAMETRIC_REPRESENTATION_CONTEXT() REPRESENTATION_CONTEXT('2D SPACE',''
  ) );
#176 = ORIENTED_EDGE('',*,*,#177,.T.);
#177 = EDGE_CURVE('',#42,#178,#180,.T.);
#178 = VERTEX_POINT('',#179);
#179 = CARTESIAN_POINT('',(22.,56.,-140.));
#180 = SEAM_CURVE('',#181,(#185,#192),.PCURVE_S1.);
#181 = LINE('',#182,#183);
#182 = CARTESIAN_POINT('',(22.,0.,-140.));
#183 = VECTOR('',#184,1.);
#184 = DIRECTION('',(0.,1.,0.));
#185 = PCURVE('',#65,#186);
#186 = DEFINITIONAL_REPRESENTATION('',(#187),#191);
#187 = LINE('',#188,#189);
#188 = CARTESIAN_POINT('',(9.424777960769,0.));
#189 = VECTOR('',#190,1.);
#190 = DIRECTION('',(0.,1.));
#191 = ( GEOMETRIC_REPRESENTATION_CONTEXT(2) 
PARAMETRIC_REPRESENTATION_CONTEXT() REPRESENTATION_CONTEXT('2D SPACE',''
  ) );
#192 = PCURVE('',#65,#193);
#193 = DEFINITIONAL_REPRESENTATION('',(#194),#198);
#194 = LINE('',#195,#196);
#195 = CARTESIAN_POINT('',(3.14159265359,0.));
#196 = VECTOR('',#197,1.);
#197 = DIRECTION('',(0.,1.));
#198 = ( GEOMETRIC_REPRESENTATION_CONTEXT(2) 
PARAMETRIC_REPRESENTATION_CONTEXT() REPRESENTATION_CONTEXT('2D SPACE',''
  ) );
#199 = ORIENTED_EDGE('',*,*,#200,.T.);
#200 = EDGE_CURVE('',#178,#201,#203,.T.);
#201 = VERTEX_POINT('',#202);
#202 = CARTESIAN_POINT('',(25.,56.,-140.));
#203 = SURFACE_CURVE('',#204,(#223,#274),.PCURVE_S1.);
#204 = B_SPLINE_CURVE_WITH_KNOTS('',3,(#205,#206,#207,#208,#209,#210,
    #211,#212,#213,#214,#215,#216,#217,#218,#219,#220,#221,#222),
  .UNSPECIFIED.,.F.,.F.,(4,2,2,2,2,2,2,2,4),(0.228452691371,
    0.285543988105,0.342635284839,0.399770333791,0.456905382742,
    0.514040431694,0.571175480645,0.628266777379,0.685358074113),
  .UNSPECIFIED.);
#205 = CARTESIAN_POINT('',(22.,56.,-140.));
#206 = CARTESIAN_POINT('',(22.,56.,-140.1903043224));
#207 = CARTESIAN_POINT('',(22.038410060698,56.014894752437,
    -140.3920597004));
#208 = CARTESIAN_POINT('',(22.192083147017,56.068656051584,
    -140.7611237747));
#209 = CARTESIAN_POINT('',(22.307248697828,56.106861522654,
    -140.9285690413));
#210 = CARTESIAN_POINT('',(22.571532187349,56.179542005944,
    -141.1928525309));
#211 = CARTESIAN_POINT('',(22.738938323863,56.218995741112,
    -141.3079408347));
#212 = CARTESIAN_POINT('',(23.107852902757,56.275680116987,
    -141.4615554235));
#213 = CARTESIAN_POINT('',(23.309549836829,56.291900756452,-141.5));
#214 = CARTESIAN_POINT('',(23.690450163171,56.291900756452,-141.5));
#215 = CARTESIAN_POINT('',(23.892147097243,56.275680116987,
    -141.4615554235));
#216 = CARTESIAN_POINT('',(24.261061676137,56.218995741112,
    -141.3079408347));
#217 = CARTESIAN_POINT('',(24.428467812651,56.179542005944,
    -141.1928525309));
#218 = CARTESIAN_POINT('',(24.692751302172,56.106861522654,
    -140.9285690413));
#219 = CARTESIAN_POINT('',(24.807916852983,56.068656051584,
    -140.7611237747));
#220 = CARTESIAN_POINT('',(24.961589939302,56.014894752437,
    -140.3920597004));
#221 = CARTESIAN_POINT('',(25.,56.,-140.1903043224));
#222 = CARTESIAN_POINT('',(25.,56.,-140.));
#223 = PCURVE('',#65,#224);
#224 = DEFINITIONAL_REPRESENTATION('',(#225),#273);
#225 = B_SPLINE_CURVE_WITH_KNOTS('',3,(#226,#227,#228,#229,#230,#231,
    #232,#233,#234,#235,#236,#237,#238,#239,#240,#241,#242,#243,#244,
    #245,#246,#247,#248,#249,#250,#251,#252,#253,#254,#255,#256,#257,
    #258,#259,#260,#261,#262,#263,#264,#265,#266,#267,#268,#269,#270,
    #271,#272),.UNSPECIFIED.,.F.,.F.,(4,1,1,1,1,1,1,1,1,1,1,1,1,1,1,1,1,
    1,1,1,1,1,1,1,1,1,1,1,1,1,1,1,1,1,1,1,1,1,1,1,1,1,1,1,4),(
    0.228452691371,0.238836904615,0.249221117859,0.259605331103,
    0.269989544348,0.280373757592,0.290757970836,0.30114218408,
    0.311526397324,0.321910610568,0.332294823812,0.342679037057,
    0.353063250301,0.363447463545,0.373831676789,0.384215890033,
    0.394600103277,0.404984316521,0.415368529766,0.42575274301,
    0.436136956254,0.446521169498,0.456905382742,0.467289595986,
    0.47767380923,0.488058022475,0.498442235719,0.508826448963,
    0.519210662207,0.529594875451,0.539979088695,0.550363301939,
    0.560747515184,0.571131728428,0.581515941672,0.591900154916,
    0.60228436816,0.612668581404,0.623052794648,0.633437007893,
    0.643821221137,0.654205434381,0.664589647625,0.674973860869,
    0.685358074113),.QUASI_UNIFORM_KNOTS.);
#226 = CARTESIAN_POINT('',(9.424777960769,56.));
#227 = CARTESIAN_POINT('',(9.40170335158,56.));
#228 = CARTESIAN_POINT('',(9.355043066744,56.0009854936));
#229 = CARTESIAN_POINT('',(9.283854844809,56.005315536085));
#230 = CARTESIAN_POINT('',(9.211802685435,56.012391324777));
#231 = CARTESIAN_POINT('',(9.139225861933,56.022111623874));
#232 = CARTESIAN_POINT('',(9.06643622566,56.034357294431));
#233 = CARTESIAN_POINT('',(8.993698385457,56.049075990004));
#234 = CARTESIAN_POINT('',(8.921188697932,56.06581979663));
#235 = CARTESIAN_POINT('',(8.849130403125,56.084093452601));
#236 = CARTESIAN_POINT('',(8.777859010734,56.103413863889));
#237 = CARTESIAN_POINT('',(8.707539867365,56.123348325324));
#238 = CARTESIAN_POINT('',(8.63909469153,56.143250408629));
#239 = CARTESIAN_POINT('',(8.570642152035,56.163278241672));
#240 = CARTESIAN_POINT('',(8.50035764507,56.183536612168));
#241 = CARTESIAN_POINT('',(8.429139587149,56.20334861449));
#242 = CARTESIAN_POINT('',(8.357151453944,56.222245630745));
#243 = CARTESIAN_POINT('',(8.28472164029,56.23970758544));
#244 = CARTESIAN_POINT('',(8.212068534086,56.255211945746));
#245 = CARTESIAN_POINT('',(8.139359498978,56.26819217443));
#246 = CARTESIAN_POINT('',(8.066846881175,56.278560918129));
#247 = CARTESIAN_POINT('',(7.994874462997,56.286154361016));
#248 = CARTESIAN_POINT('',(7.923639594977,56.290829182355));
#249 = CARTESIAN_POINT('',(7.853981633974,56.292436543501));
#250 = CARTESIAN_POINT('',(7.784323672972,56.290829182355));
#251 = CARTESIAN_POINT('',(7.713088804952,56.286154361016));
#252 = CARTESIAN_POINT('',(7.641116386774,56.278560918129));
#253 = CARTESIAN_POINT('',(7.568603768971,56.26819217443));
#254 = CARTESIAN_POINT('',(7.495894733863,56.255211945746));
#255 = CARTESIAN_POINT('',(7.423241627659,56.23970758544));
#256 = CARTESIAN_POINT('',(7.350811814005,56.222245630745));
#257 = CARTESIAN_POINT('',(7.2788236808,56.20334861449));
#258 = CARTESIAN_POINT('',(7.207605622878,56.183536612168));
#259 = CARTESIAN_POINT('',(7.137321115914,56.163278241672));
#260 = CARTESIAN_POINT('',(7.068868576419,56.143250408629));
#261 = CARTESIAN_POINT('',(7.000423400584,56.123348325324));
#262 = CARTESIAN_POINT('',(6.930104257215,56.103413863889));
#263 = CARTESIAN_POINT('',(6.858832864824,56.084093452601));
#264 = CARTESIAN_POINT('',(6.786774570017,56.06581979663));
#265 = CARTESIAN_POINT('',(6.714264882492,56.049075990004));
#266 = CARTESIAN_POINT('',(6.641527042289,56.034357294431));
#267 = CARTESIAN_POINT('',(6.568737406015,56.022111623874));
#268 = CARTESIAN_POINT('',(6.496160582514,56.012391324777));
#269 = CARTESIAN_POINT('',(6.42410842314,56.005315536085));
#270 = CARTESIAN_POINT('',(6.352920201205,56.0009854936));
#271 = CARTESIAN_POINT('',(6.306259916369,56.));
#272 = CARTESIAN_POINT('',(6.28318530718,56.));
#273 = ( GEOMETRIC_REPRESENTATION_CONTEXT(2) 
PARAMETRIC_REPRESENTATION_CONTEXT() REPRESENTATION_CONTEXT('2D SPACE',''
  ) );
#274 = PCURVE('',#275,#280);
#275 = CYLINDRICAL_SURFACE('',#276,4.);
#276 = AXIS2_PLACEMENT_3D('',#277,#278,#279);
#277 = CARTESIAN_POINT('',(20.,60.,-140.));
#278 = DIRECTION('',(1.,0.,0.));
#279 = DIRECTION('',(-0.,1.,0.));
#280 = DEFINITIONAL_REPRESENTATION('',(#281),#329);
#281 = B_SPLINE_CURVE_WITH_KNOTS('',3,(#282,#283,#284,#285,#286,#287,
    #288,#289,#290,#291,#292,#293,#294,#295,#296,#297,#298,#299,#300,
    #301,#302,#303,#304,#305,#306,#307,#308,#309,#310,#311,#312,#313,
    #314,#315,#316,#317,#318,#319,#320,#321,#322,#323,#324,#325,#326,
    #327,#328),.UNSPECIFIED.,.F.,.F.,(4,1,1,1,1,1,1,1,1,1,1,1,1,1,1,1,1,
    1,1,1,1,1,1,1,1,1,1,1,1,1,1,1,1,1,1,1,1,1,1,1,1,1,1,1,4),(
    0.228452691371,0.238836904615,0.249221117859,0.259605331103,
    0.269989544348,0.280373757592,0.290757970836,0.30114218408,
    0.311526397324,0.321910610568,0.332294823812,0.342679037057,
    0.353063250301,0.363447463545,0.373831676789,0.384215890033,
    0.394600103277,0.404984316521,0.415368529766,0.42575274301,
    0.436136956254,0.446521169498,0.456905382742,0.467289595986,
    0.47767380923,0.488058022475,0.498442235719,0.508826448963,
    0.519210662207,0.529594875451,0.539979088695,0.550363301939,
    0.560747515184,0.571131728428,0.581515941672,0.591900154916,
    0.60228436816,0.612668581404,0.623052794648,0.633437007893,
    0.643821221137,0.654205434381,0.664589647625,0.674973860869,
    0.685358074113),.QUASI_UNIFORM_KNOTS.);
#282 = CARTESIAN_POINT('',(-3.14159265359,2.));
#283 = CARTESIAN_POINT('',(-3.132939400589,2.));
#284 = CARTESIAN_POINT('',(-3.115442449808,2.002541395882));
#285 = CARTESIAN_POINT('',(-3.08886766524,2.013978799466));
#286 = CARTESIAN_POINT('',(-3.062204472905,2.033040518075));
#287 = CARTESIAN_POINT('',(-3.035697412012,2.059732965936));
#288 = CARTESIAN_POINT('',(-3.009588027971,2.09403503829));
#289 = CARTESIAN_POINT('',(-2.984125773709,2.136028297347));
#290 = CARTESIAN_POINT('',(-2.959509646731,2.185298625993));
#291 = CARTESIAN_POINT('',(-2.935896610619,2.241010023821));
#292 = CARTESIAN_POINT('',(-2.913472905807,2.302365101725));
#293 = CARTESIAN_POINT('',(-2.892370944459,2.368752845585));
#294 = CARTESIAN_POINT('',(-2.872932146039,2.43877813004));
#295 = CARTESIAN_POINT('',(-2.854733461325,2.513996092472));
#296 = CARTESIAN_POINT('',(-2.837399602126,2.596014341633));
#297 = CARTESIAN_POINT('',(-2.821302468794,2.683571954734));
#298 = CARTESIAN_POINT('',(-2.806618404128,2.776179522269));
#299 = CARTESIAN_POINT('',(-2.793572582479,2.873130113143));
#300 = CARTESIAN_POINT('',(-2.782400721358,2.973815369337));
#301 = CARTESIAN_POINT('',(-2.773245201355,3.077431342213));
#302 = CARTESIAN_POINT('',(-2.766095491715,3.182925636143));
#303 = CARTESIAN_POINT('',(-2.760971318673,3.289228690169));
#304 = CARTESIAN_POINT('',(-2.757884956603,3.395514368675));
#305 = CARTESIAN_POINT('',(-2.75685134034,3.5));
#306 = CARTESIAN_POINT('',(-2.757884956603,3.604485631325));
#307 = CARTESIAN_POINT('',(-2.760971318673,3.710771309831));
#308 = CARTESIAN_POINT('',(-2.766095491715,3.817074363857));
#309 = CARTESIAN_POINT('',(-2.773245201355,3.922568657787));
#310 = CARTESIAN_POINT('',(-2.782400721358,4.026184630663));
#311 = CARTESIAN_POINT('',(-2.793572582479,4.126869886858));
#312 = CARTESIAN_POINT('',(-2.806618404128,4.223820477731));
#313 = CARTESIAN_POINT('',(-2.821302468794,4.316428045266));
#314 = CARTESIAN_POINT('',(-2.837399602126,4.403985658367));
#315 = CARTESIAN_POINT('',(-2.854733461325,4.486003907528));
#316 = CARTESIAN_POINT('',(-2.872932146039,4.56122186996));
#317 = CARTESIAN_POINT('',(-2.892370944459,4.631247154415));
#318 = CARTESIAN_POINT('',(-2.913472905807,4.697634898275));
#319 = CARTESIAN_POINT('',(-2.935896610619,4.758989976179));
#320 = CARTESIAN_POINT('',(-2.959509646731,4.814701374007));
#321 = CARTESIAN_POINT('',(-2.984125773709,4.863971702653));
#322 = CARTESIAN_POINT('',(-3.009588027971,4.90596496171));
#323 = CARTESIAN_POINT('',(-3.035697412012,4.940267034064));
#324 = CARTESIAN_POINT('',(-3.062204472905,4.966959481925));
#325 = CARTESIAN_POINT('',(-3.08886766524,4.986021200534));
#326 = CARTESIAN_POINT('',(-3.115442449808,4.997458604118));
#327 = CARTESIAN_POINT('',(-3.132939400589,5.));
#328 = CARTESIAN_POINT('',(-3.14159265359,5.));
#329 = ( GEOMETRIC_REPRESENTATION_CONTEXT(2) 
PARAMETRIC_REPRESENTATION_CONTEXT() REPRESENTATION_CONTEXT('2D SPACE',''
  ) );
#330 = ORIENTED_EDGE('',*,*,#331,.T.);
#331 = EDGE_CURVE('',#201,#332,#334,.T.);
#332 = VERTEX_POINT('',#333);
#333 = CARTESIAN_POINT('',(23.5,56.291900756452,-138.5));
#334 = SURFACE_CURVE('',#335,(#346,#375),.PCURVE_S1.);
#335 = B_SPLINE_CURVE_WITH_KNOTS('',3,(#336,#337,#338,#339,#340,#341,
    #342,#343,#344,#345),.UNSPECIFIED.,.F.,.F.,(4,2,2,2,4),(
    0.685358074113,0.742449370847,0.799540667582,0.856675716533,
    0.913810765484),.UNSPECIFIED.);
#336 = CARTESIAN_POINT('',(25.,56.,-140.));
#337 = CARTESIAN_POINT('',(25.,56.,-139.8096956775));
#338 = CARTESIAN_POINT('',(24.961589939302,56.014894752437,
    -139.6079402995));
#339 = CARTESIAN_POINT('',(24.807916852983,56.068656051584,
    -139.2388762252));
#340 = CARTESIAN_POINT('',(24.692751302172,56.106861522654,
    -139.0714309586));
#341 = CARTESIAN_POINT('',(24.428467812651,56.179542005944,
    -138.807147469));
#342 = CARTESIAN_POINT('',(24.261061676137,56.218995741112,
    -138.6920591652));
#343 = CARTESIAN_POINT('',(23.892147097243,56.275680116987,
    -138.5384445764));
#344 = CARTESIAN_POINT('',(23.690450163171,56.291900756452,-138.5));
#345 = CARTESIAN_POINT('',(23.5,56.291900756452,-138.5));
#346 = PCURVE('',#65,#347);
#347 = DEFINITIONAL_REPRESENTATION('',(#348),#374);
#348 = B_SPLINE_CURVE_WITH_KNOTS('',3,(#349,#350,#351,#352,#353,#354,
    #355,#356,#357,#358,#359,#360,#361,#362,#363,#364,#365,#366,#367,
    #368,#369,#370,#371,#372,#373),.UNSPECIFIED.,.F.,.F.,(4,1,1,1,1,1,1,
    1,1,1,1,1,1,1,1,1,1,1,1,1,1,1,4),(0.685358074113,0.695742287357,
    0.706126500601,0.716510713846,0.72689492709,0.737279140334,
    0.747663353578,0.758047566822,0.768431780066,0.77881599331,
    0.789200206555,0.799584419799,0.809968633043,0.820352846287,
    0.830737059531,0.841121272775,0.851505486019,0.861889699264,
    0.872273912508,0.882658125752,0.893042338996,0.90342655224,
    0.913810765484),.QUASI_UNIFORM_KNOTS.);
#349 = CARTESIAN_POINT('',(6.28318530718,56.));
#350 = CARTESIAN_POINT('',(6.26011069799,56.));
#351 = CARTESIAN_POINT('',(6.213450413154,56.0009854936));
#352 = CARTESIAN_POINT('',(6.14226219122,56.005315536085));
#353 = CARTESIAN_POINT('',(6.070210031845,56.012391324777));
#354 = CARTESIAN_POINT('',(5.997633208344,56.022111623874));
#355 = CARTESIAN_POINT('',(5.92484357207,56.034357294431));
#356 = CARTESIAN_POINT('',(5.852105731867,56.049075990004));
#357 = CARTESIAN_POINT('',(5.779596044343,56.06581979663));
#358 = CARTESIAN_POINT('',(5.707537749532,56.084093452601));
#359 = CARTESIAN_POINT('',(5.636266357154,56.103413863889));
#360 = CARTESIAN_POINT('',(5.565947213741,56.123348325324));
#361 = CARTESIAN_POINT('',(5.497502038068,56.143250408629));
#362 = CARTESIAN_POINT('',(5.429049497967,56.163278241672));
#363 = CARTESIAN_POINT('',(5.358764993265,56.183536612168));
#364 = CARTESIAN_POINT('',(5.287546926899,56.20334861449));
#365 = CARTESIAN_POINT('',(5.215558825212,56.222245630745));
#366 = CARTESIAN_POINT('',(5.143128893931,56.23970758544));
#367 = CARTESIAN_POINT('',(5.070476226717,56.255211945746));
#368 = CARTESIAN_POINT('',(4.997765553273,56.26819217443));
#369 = CARTESIAN_POINT('',(4.925259049823,56.278560918129));
#370 = CARTESIAN_POINT('',(4.853263812571,56.286154361016));
#371 = CARTESIAN_POINT('',(4.782114106493,56.290829182355));
#372 = CARTESIAN_POINT('',(4.735463580029,56.291900756452));
#373 = CARTESIAN_POINT('',(4.712388980385,56.291900756452));
#374 = ( GEOMETRIC_REPRESENTATION_CONTEXT(2) 
PARAMETRIC_REPRESENTATION_CONTEXT() REPRESENTATION_CONTEXT('2D SPACE',''
  ) );
#375 = PCURVE('',#275,#376);
#376 = DEFINITIONAL_REPRESENTATION('',(#377),#403);
#377 = B_SPLINE_CURVE_WITH_KNOTS('',3,(#378,#379,#380,#381,#382,#383,
    #384,#385,#386,#387,#388,#389,#390,#391,#392,#393,#394,#395,#396,
    #397,#398,#399,#400,#401,#402),.UNSPECIFIED.,.F.,.F.,(4,1,1,1,1,1,1,
    1,1,1,1,1,1,1,1,1,1,1,1,1,1,1,4),(0.685358074113,0.695742287357,
    0.706126500601,0.716510713846,0.72689492709,0.737279140334,
    0.747663353578,0.758047566822,0.768431780066,0.77881599331,
    0.789200206555,0.799584419799,0.809968633043,0.820352846287,
    0.830737059531,0.841121272775,0.851505486019,0.861889699264,
    0.872273912508,0.882658125752,0.893042338996,0.90342655224,
    0.913810765484),.QUASI_UNIFORM_KNOTS.);
#378 = CARTESIAN_POINT('',(3.14159265359,5.));
#379 = CARTESIAN_POINT('',(3.132939400589,5.));
#380 = CARTESIAN_POINT('',(3.115442449808,4.997458604118));
#381 = CARTESIAN_POINT('',(3.08886766524,4.986021200534));
#382 = CARTESIAN_POINT('',(3.062204472905,4.966959481925));
#383 = CARTESIAN_POINT('',(3.035697412012,4.940267034064));
#384 = CARTESIAN_POINT('',(3.009588027971,4.90596496171));
#385 = CARTESIAN_POINT('',(2.984125773709,4.863971702652));
#386 = CARTESIAN_POINT('',(2.959509646731,4.814701374008));
#387 = CARTESIAN_POINT('',(2.935896610619,4.758989976176));
#388 = CARTESIAN_POINT('',(2.913472905807,4.697634898288));
#389 = CARTESIAN_POINT('',(2.89237094446,4.631247154364));
#390 = CARTESIAN_POINT('',(2.872932146039,4.56122187015));
#391 = CARTESIAN_POINT('',(2.854733461325,4.486003906819));
#392 = CARTESIAN_POINT('',(2.837399602125,4.403985661012));
#393 = CARTESIAN_POINT('',(2.821302468795,4.316428035394));
#394 = CARTESIAN_POINT('',(2.806618404124,4.223820514574));
#395 = CARTESIAN_POINT('',(2.793572582492,4.126869749358));
#396 = CARTESIAN_POINT('',(2.782400721309,4.026185143819));
#397 = CARTESIAN_POINT('',(2.773245201535,3.922566742663));
#398 = CARTESIAN_POINT('',(2.766095491041,3.817081511198));
#399 = CARTESIAN_POINT('',(2.760971321187,3.71074463559));
#400 = CARTESIAN_POINT('',(2.757884947218,3.604585180949));
#401 = CARTESIAN_POINT('',(2.757195899318,3.534614044147));
#402 = CARTESIAN_POINT('',(2.757195879094,3.5));
#403 = ( GEOMETRIC_REPRESENTATION_CONTEXT(2) 
PARAMETRIC_REPRESENTATION_CONTEXT() REPRESENTATION_CONTEXT('2D SPACE',''
  ) );
#404 = ORIENTED_EDGE('',*,*,#405,.T.);
#405 = EDGE_CURVE('',#332,#178,#406,.T.);
#406 = SURFACE_CURVE('',#407,(#418,#447),.PCURVE_S1.);
#407 = B_SPLINE_CURVE_WITH_KNOTS('',3,(#408,#409,#410,#411,#412,#413,
    #414,#415,#416,#417),.UNSPECIFIED.,.F.,.F.,(4,2,2,2,4),(0.,
    5.713504895138E-02,0.114270097903,0.171361394637,0.228452691371),
  .UNSPECIFIED.);
#408 = CARTESIAN_POINT('',(23.5,56.291900756452,-138.5));
#409 = CARTESIAN_POINT('',(23.309549836829,56.291900756452,-138.5));
#410 = CARTESIAN_POINT('',(23.107852902757,56.275680116987,
    -138.5384445764));
#411 = CARTESIAN_POINT('',(22.738938323863,56.218995741112,
    -138.6920591652));
#412 = CARTESIAN_POINT('',(22.571532187349,56.179542005944,
    -138.807147469));
#413 = CARTESIAN_POINT('',(22.307248697828,56.106861522654,
    -139.0714309586));
#414 = CARTESIAN_POINT('',(22.192083147017,56.068656051584,
    -139.2388762252));
#415 = CARTESIAN_POINT('',(22.038410060698,56.014894752437,
    -139.6079402995));
#416 = CARTESIAN_POINT('',(22.,56.,-139.8096956775));
#417 = CARTESIAN_POINT('',(22.,56.,-140.));
#418 = PCURVE('',#65,#419);
#419 = DEFINITIONAL_REPRESENTATION('',(#420),#446);
#420 = B_SPLINE_CURVE_WITH_KNOTS('',3,(#421,#422,#423,#424,#425,#426,
    #427,#428,#429,#430,#431,#432,#433,#434,#435,#436,#437,#438,#439,
    #440,#441,#442,#443,#444,#445),.UNSPECIFIED.,.F.,.F.,(4,1,1,1,1,1,1,
    1,1,1,1,1,1,1,1,1,1,1,1,1,1,1,4),(0.,1.038421324414E-02,
    2.076842648828E-02,3.115263973242E-02,4.153685297656E-02,
    5.19210662207E-02,6.230527946484E-02,7.268949270898E-02,
    8.307370595312E-02,9.345791919726E-02,0.103842132441,0.114226345686,
    0.12461055893,0.134994772174,0.145378985418,0.155763198662,
    0.166147411906,0.17653162515,0.186915838395,0.197300051639,
    0.207684264883,0.218068478127,0.228452691371),
  .QUASI_UNIFORM_KNOTS.);
#421 = CARTESIAN_POINT('',(4.712388980385,56.291900756452));
#422 = CARTESIAN_POINT('',(4.68931438074,56.291900756452));
#423 = CARTESIAN_POINT('',(4.642663854277,56.290829182355));
#424 = CARTESIAN_POINT('',(4.571514148198,56.286154361016));
#425 = CARTESIAN_POINT('',(4.499518910946,56.278560918129));
#426 = CARTESIAN_POINT('',(4.427012407496,56.26819217443));
#427 = CARTESIAN_POINT('',(4.354301734052,56.255211945746));
#428 = CARTESIAN_POINT('',(4.281649066839,56.23970758544));
#429 = CARTESIAN_POINT('',(4.209219135558,56.222245630745));
#430 = CARTESIAN_POINT('',(4.137231033871,56.20334861449));
#431 = CARTESIAN_POINT('',(4.066012967504,56.183536612168));
#432 = CARTESIAN_POINT('',(3.995728462803,56.163278241672));
#433 = CARTESIAN_POINT('',(3.927275922701,56.143250408629));
#434 = CARTESIAN_POINT('',(3.858830747028,56.123348325324));
#435 = CARTESIAN_POINT('',(3.788511603616,56.103413863889));
#436 = CARTESIAN_POINT('',(3.717240211237,56.084093452601));
#437 = CARTESIAN_POINT('',(3.645181916427,56.06581979663));
#438 = CARTESIAN_POINT('',(3.572672228903,56.049075990004));
#439 = CARTESIAN_POINT('',(3.499934388699,56.034357294431));
#440 = CARTESIAN_POINT('',(3.427144752426,56.022111623874));
#441 = CARTESIAN_POINT('',(3.354567928924,56.012391324777));
#442 = CARTESIAN_POINT('',(3.28251576955,56.005315536085));
#443 = CARTESIAN_POINT('',(3.211327547615,56.0009854936));
#444 = CARTESIAN_POINT('',(3.164667262779,56.));
#445 = CARTESIAN_POINT('',(3.14159265359,56.));
#446 = ( GEOMETRIC_REPRESENTATION_CONTEXT(2) 
PARAMETRIC_REPRESENTATION_CONTEXT() REPRESENTATION_CONTEXT('2D SPACE',''
  ) );
#447 = PCURVE('',#275,#448);
#448 = DEFINITIONAL_REPRESENTATION('',(#449),#475);
#449 = B_SPLINE_CURVE_WITH_KNOTS('',3,(#450,#451,#452,#453,#454,#455,
    #456,#457,#458,#459,#460,#461,#462,#463,#464,#465,#466,#467,#468,
    #469,#470,#471,#472,#473,#474),.UNSPECIFIED.,.F.,.F.,(4,1,1,1,1,1,1,
    1,1,1,1,1,1,1,1,1,1,1,1,1,1,1,4),(0.,1.038421324414E-02,
    2.076842648828E-02,3.115263973242E-02,4.153685297656E-02,
    5.19210662207E-02,6.230527946484E-02,7.268949270898E-02,
    8.307370595312E-02,9.345791919726E-02,0.103842132441,0.114226345686,
    0.12461055893,0.134994772174,0.145378985418,0.155763198662,
    0.166147411906,0.17653162515,0.186915838395,0.197300051639,
    0.207684264883,0.218068478127,0.228452691371),
  .QUASI_UNIFORM_KNOTS.);
#450 = CARTESIAN_POINT('',(2.757195879094,3.5));
#451 = CARTESIAN_POINT('',(2.757195899318,3.465385955853));
#452 = CARTESIAN_POINT('',(2.757884947218,3.395414819051));
#453 = CARTESIAN_POINT('',(2.760971321187,3.28925536441));
#454 = CARTESIAN_POINT('',(2.766095491041,3.182918488802));
#455 = CARTESIAN_POINT('',(2.773245201535,3.077433257337));
#456 = CARTESIAN_POINT('',(2.782400721309,2.973814856181));
#457 = CARTESIAN_POINT('',(2.793572582492,2.873130250642));
#458 = CARTESIAN_POINT('',(2.806618404124,2.776179485426));
#459 = CARTESIAN_POINT('',(2.821302468795,2.683571964606));
#460 = CARTESIAN_POINT('',(2.837399602125,2.596014338988));
#461 = CARTESIAN_POINT('',(2.854733461325,2.513996093181));
#462 = CARTESIAN_POINT('',(2.872932146039,2.43877812985));
#463 = CARTESIAN_POINT('',(2.89237094446,2.368752845636));
#464 = CARTESIAN_POINT('',(2.913472905807,2.302365101712));
#465 = CARTESIAN_POINT('',(2.935896610619,2.241010023825));
#466 = CARTESIAN_POINT('',(2.959509646731,2.185298625992));
#467 = CARTESIAN_POINT('',(2.984125773709,2.136028297348));
#468 = CARTESIAN_POINT('',(3.009588027971,2.09403503829));
#469 = CARTESIAN_POINT('',(3.035697412012,2.059732965936));
#470 = CARTESIAN_POINT('',(3.062204472905,2.033040518075));
#471 = CARTESIAN_POINT('',(3.08886766524,2.013978799466));
#472 = CARTESIAN_POINT('',(3.115442449808,2.002541395882));
#473 = CARTESIAN_POINT('',(3.132939400589,2.));
#474 = CARTESIAN_POINT('',(3.14159265359,2.));
#475 = ( GEOMETRIC_REPRESENTATION_CONTEXT(2) 
PARAMETRIC_REPRESENTATION_CONTEXT() REPRESENTATION_CONTEXT('2D SPACE',''
  ) );
#476 = ORIENTED_EDGE('',*,*,#177,.F.);
#477 = ORIENTED_EDGE('',*,*,#478,.T.);
#478 = EDGE_CURVE('',#42,#479,#481,.T.);
#479 = VERTEX_POINT('',#480);
#480 = CARTESIAN_POINT('',(23.5,53.162602834411,-138.5));
#481 = SURFACE_CURVE('',#482,(#493,#522),.PCURVE_S1.);
#482 = B_SPLINE_CURVE_WITH_KNOTS('',3,(#483,#484,#485,#486,#487,#488,
    #489,#490,#491,#492),.UNSPECIFIED.,.F.,.F.,(4,2,2,2,4),(
    0.68031152997,0.737002052252,0.793692574533,0.850387307247,
    0.907082039961),.UNSPECIFIED.);
#483 = CARTESIAN_POINT('',(22.,53.,-140.));
#484 = CARTESIAN_POINT('',(22.,53.,-139.8110315923));
#485 = CARTESIAN_POINT('',(22.037885064554,53.008423698143,
    -139.6098632627));
#486 = CARTESIAN_POINT('',(22.191149582428,53.038861548533,
    -139.2404624301));
#487 = CARTESIAN_POINT('',(22.306497114409,53.060459911698,
    -139.072182542));
#488 = CARTESIAN_POINT('',(22.572192408324,53.101189097636,
    -138.8064872481));
#489 = CARTESIAN_POINT('',(22.740468127846,53.123008187253,
    -138.6911474357));
#490 = CARTESIAN_POINT('',(23.109854395276,53.153954310034,
    -138.5378885263));
#491 = CARTESIAN_POINT('',(23.31101755762,53.162602834411,-138.5));
#492 = CARTESIAN_POINT('',(23.5,53.162602834411,-138.5));
#493 = PCURVE('',#65,#494);
#494 = DEFINITIONAL_REPRESENTATION('',(#495),#521);
#495 = B_SPLINE_CURVE_WITH_KNOTS('',3,(#496,#497,#498,#499,#500,#501,
    #502,#503,#504,#505,#506,#507,#508,#509,#510,#511,#512,#513,#514,
    #515,#516,#517,#518,#519,#520),.UNSPECIFIED.,.F.,.F.,(4,1,1,1,1,1,1,
    1,1,1,1,1,1,1,1,1,1,1,1,1,1,1,4),(0.68031152997,0.690619280425,
    0.700927030879,0.711234781333,0.721542531787,0.731850282241,
    0.742158032695,0.752465783149,0.762773533603,0.773081284057,
    0.783389034511,0.793696784966,0.80400453542,0.814312285874,
    0.824620036328,0.834927786782,0.845235537236,0.85554328769,
    0.865851038144,0.876158788598,0.886466539052,0.896774289506,
    0.907082039961),.QUASI_UNIFORM_KNOTS.);
#496 = CARTESIAN_POINT('',(3.14159265359,53.));
#497 = CARTESIAN_POINT('',(3.164497606714,53.));
#498 = CARTESIAN_POINT('',(3.21085023626,53.000556957298));
#499 = CARTESIAN_POINT('',(3.281669772326,53.003004735948));
#500 = CARTESIAN_POINT('',(3.353442646938,53.007005507767));
#501 = CARTESIAN_POINT('',(3.425830469584,53.012502794432));
#502 = CARTESIAN_POINT('',(3.498523561609,53.019429453115));
#503 = CARTESIAN_POINT('',(3.571265395672,53.027758127793));
#504 = CARTESIAN_POINT('',(3.643868381823,53.037224053649));
#505 = CARTESIAN_POINT('',(3.716096547453,53.047542258182));
#506 = CARTESIAN_POINT('',(3.787605542503,53.058434858134));
#507 = CARTESIAN_POINT('',(3.85821619168,53.069650676056));
#508 = CARTESIAN_POINT('',(3.92701861631,53.080824622025));
#509 = CARTESIAN_POINT('',(3.995821682386,53.092020550471));
#510 = CARTESIAN_POINT('',(4.066428871112,53.103294730171));
#511 = CARTESIAN_POINT('',(4.137932565579,53.114275660337));
#512 = CARTESIAN_POINT('',(4.210153797576,53.124705559834));
#513 = CARTESIAN_POINT('',(4.282748949531,53.134299538477));
#514 = CARTESIAN_POINT('',(4.355482473722,53.142767422628));
#515 = CARTESIAN_POINT('',(4.428167934543,53.149823013688));
#516 = CARTESIAN_POINT('',(4.500549008447,53.155433338973));
#517 = CARTESIAN_POINT('',(4.572316449588,53.159523837973));
#518 = CARTESIAN_POINT('',(4.643132323366,53.16203109743));
#519 = CARTESIAN_POINT('',(4.689484028459,53.162602834411));
#520 = CARTESIAN_POINT('',(4.712388980385,53.162602834411));
#521 = ( GEOMETRIC_REPRESENTATION_CONTEXT(2) 
PARAMETRIC_REPRESENTATION_CONTEXT() REPRESENTATION_CONTEXT('2D SPACE',''
  ) );
#522 = PCURVE('',#121,#523);
#523 = DEFINITIONAL_REPRESENTATION('',(#524),#550);
#524 = B_SPLINE_CURVE_WITH_KNOTS('',3,(#525,#526,#527,#528,#529,#530,
    #531,#532,#533,#534,#535,#536,#537,#538,#539,#540,#541,#542,#543,
    #544,#545,#546,#547,#548,#549),.UNSPECIFIED.,.F.,.F.,(4,1,1,1,1,1,1,
    1,1,1,1,1,1,1,1,1,1,1,1,1,1,1,4),(0.68031152997,0.690619280425,
    0.700927030879,0.711234781333,0.721542531787,0.731850282241,
    0.742158032695,0.752465783149,0.762773533603,0.773081284057,
    0.783389034511,0.793696784966,0.80400453542,0.814312285874,
    0.824620036328,0.834927786782,0.845235537236,0.85554328769,
    0.865851038144,0.876158788598,0.886466539052,0.896774289506,
    0.907082039961),.QUASI_UNIFORM_KNOTS.);
#525 = CARTESIAN_POINT('',(3.14159265359,2.));
#526 = CARTESIAN_POINT('',(3.136684249357,2.));
#527 = CARTESIAN_POINT('',(3.126752008248,2.002504924422));
#528 = CARTESIAN_POINT('',(3.111651993534,2.013808712303));
#529 = CARTESIAN_POINT('',(3.096494696745,2.032688395672));
#530 = CARTESIAN_POINT('',(3.081425447508,2.05918093687));
#531 = CARTESIAN_POINT('',(3.066587940729,2.093295559576));
#532 = CARTESIAN_POINT('',(3.052131330534,2.135144974014));
#533 = CARTESIAN_POINT('',(3.038176438918,2.184351252702));
#534 = CARTESIAN_POINT('',(3.024815513694,2.240081409856));
#535 = CARTESIAN_POINT('',(3.012155564374,2.301547917828));
#536 = CARTESIAN_POINT('',(3.000273038027,2.368141786493));
#537 = CARTESIAN_POINT('',(2.989356166514,2.438494417487));
#538 = CARTESIAN_POINT('',(2.979179977993,2.514097109669));
#539 = CARTESIAN_POINT('',(2.96953232457,2.59651554274));
#540 = CARTESIAN_POINT('',(2.960613649563,2.684460628877));
#541 = CARTESIAN_POINT('',(2.952515342915,2.777411064362));
#542 = CARTESIAN_POINT('',(2.94535484232,2.87462917658));
#543 = CARTESIAN_POINT('',(2.939256320529,2.975474984402));
#544 = CARTESIAN_POINT('',(2.934280456105,3.079098415261));
#545 = CARTESIAN_POINT('',(2.930412431132,3.184431031361));
#546 = CARTESIAN_POINT('',(2.927653086764,3.290449176928));
#547 = CARTESIAN_POINT('',(2.925999170547,3.396117192761));
#548 = CARTESIAN_POINT('',(2.925632158129,3.46564083182));
#549 = CARTESIAN_POINT('',(2.925632154905,3.5));
#550 = ( GEOMETRIC_REPRESENTATION_CONTEXT(2) 
PARAMETRIC_REPRESENTATION_CONTEXT() REPRESENTATION_CONTEXT('2D SPACE',''
  ) );
#551 = ORIENTED_EDGE('',*,*,#552,.T.);
#552 = EDGE_CURVE('',#479,#40,#553,.T.);
#553 = SURFACE_CURVE('',#554,(#565,#594),.PCURVE_S1.);
#554 = B_SPLINE_CURVE_WITH_KNOTS('',3,(#555,#556,#557,#558,#559,#560,
    #561,#562,#563,#564),.UNSPECIFIED.,.F.,.F.,(4,2,2,2,4),(0.,
    5.669473271387E-02,0.113389465428,0.170079987709,0.22677050999),
  .UNSPECIFIED.);
#555 = CARTESIAN_POINT('',(23.5,53.162602834411,-138.5));
#556 = CARTESIAN_POINT('',(23.688982442379,53.162602834411,-138.5));
#557 = CARTESIAN_POINT('',(23.890145604723,53.153954310034,
    -138.5378885263));
#558 = CARTESIAN_POINT('',(24.259531872154,53.123008187253,
    -138.6911474357));
#559 = CARTESIAN_POINT('',(24.427807591676,53.101189097636,
    -138.8064872481));
#560 = CARTESIAN_POINT('',(24.69350288559,53.060459911698,-139.072182542
    ));
#561 = CARTESIAN_POINT('',(24.808850417572,53.038861548533,
    -139.2404624301));
#562 = CARTESIAN_POINT('',(24.962114935446,53.008423698143,
    -139.6098632627));
#563 = CARTESIAN_POINT('',(25.,53.,-139.8110315923));
#564 = CARTESIAN_POINT('',(25.,53.,-140.));
#565 = PCURVE('',#65,#566);
#566 = DEFINITIONAL_REPRESENTATION('',(#567),#593);
#567 = B_SPLINE_CURVE_WITH_KNOTS('',3,(#568,#569,#570,#571,#572,#573,
    #574,#575,#576,#577,#578,#579,#580,#581,#582,#583,#584,#585,#586,
    #587,#588,#589,#590,#591,#592),.UNSPECIFIED.,.F.,.F.,(4,1,1,1,1,1,1,
    1,1,1,1,1,1,1,1,1,1,1,1,1,1,1,4),(0.,1.03077504541E-02,
    2.06155009082E-02,3.092325136229E-02,4.123100181639E-02,
    5.153875227049E-02,6.184650272459E-02,7.215425317868E-02,
    8.246200363278E-02,9.276975408688E-02,0.103077504541,0.113385254995,
    0.123693005449,0.134000755903,0.144308506357,0.154616256811,
    0.164924007266,0.17523175772,0.185539508174,0.195847258628,
    0.206155009082,0.216462759536,0.22677050999),.QUASI_UNIFORM_KNOTS.);
#568 = CARTESIAN_POINT('',(4.712388980385,53.162602834411));
#569 = CARTESIAN_POINT('',(4.735293932311,53.162602834411));
#570 = CARTESIAN_POINT('',(4.781645637404,53.16203109743));
#571 = CARTESIAN_POINT('',(4.852461511181,53.159523837973));
#572 = CARTESIAN_POINT('',(4.924228952323,53.155433338973));
#573 = CARTESIAN_POINT('',(4.996610026226,53.149823013688));
#574 = CARTESIAN_POINT('',(5.069295487048,53.142767422628));
#575 = CARTESIAN_POINT('',(5.142029011238,53.134299538477));
#576 = CARTESIAN_POINT('',(5.214624163194,53.124705559834));
#577 = CARTESIAN_POINT('',(5.286845395191,53.114275660337));
#578 = CARTESIAN_POINT('',(5.358349089657,53.103294730171));
#579 = CARTESIAN_POINT('',(5.428956278383,53.092020550471));
#580 = CARTESIAN_POINT('',(5.49775934446,53.080824622025));
#581 = CARTESIAN_POINT('',(5.566561769089,53.069650676056));
#582 = CARTESIAN_POINT('',(5.637172418266,53.058434858134));
#583 = CARTESIAN_POINT('',(5.708681413317,53.047542258182));
#584 = CARTESIAN_POINT('',(5.780909578946,53.037224053649));
#585 = CARTESIAN_POINT('',(5.853512565097,53.027758127793));
#586 = CARTESIAN_POINT('',(5.926254399161,53.019429453115));
#587 = CARTESIAN_POINT('',(5.998947491185,53.012502794432));
#588 = CARTESIAN_POINT('',(6.071335313831,53.007005507767));
#589 = CARTESIAN_POINT('',(6.143108188444,53.003004735948));
#590 = CARTESIAN_POINT('',(6.213927724509,53.000556957298));
#591 = CARTESIAN_POINT('',(6.260280354055,53.));
#592 = CARTESIAN_POINT('',(6.28318530718,53.));
#593 = ( GEOMETRIC_REPRESENTATION_CONTEXT(2) 
PARAMETRIC_REPRESENTATION_CONTEXT() REPRESENTATION_CONTEXT('2D SPACE',''
  ) );
#594 = PCURVE('',#121,#595);
#595 = DEFINITIONAL_REPRESENTATION('',(#596),#622);
#596 = B_SPLINE_CURVE_WITH_KNOTS('',3,(#597,#598,#599,#600,#601,#602,
    #603,#604,#605,#606,#607,#608,#609,#610,#611,#612,#613,#614,#615,
    #616,#617,#618,#619,#620,#621),.UNSPECIFIED.,.F.,.F.,(4,1,1,1,1,1,1,
    1,1,1,1,1,1,1,1,1,1,1,1,1,1,1,4),(0.,1.03077504541E-02,
    2.06155009082E-02,3.092325136229E-02,4.123100181639E-02,
    5.153875227049E-02,6.184650272459E-02,7.215425317868E-02,
    8.246200363278E-02,9.276975408688E-02,0.103077504541,0.113385254995,
    0.123693005449,0.134000755903,0.144308506357,0.154616256811,
    0.164924007266,0.17523175772,0.185539508174,0.195847258628,
    0.206155009082,0.216462759536,0.22677050999),.QUASI_UNIFORM_KNOTS.);
#597 = CARTESIAN_POINT('',(2.925632154905,3.5));
#598 = CARTESIAN_POINT('',(2.925632158129,3.53435916818));
#599 = CARTESIAN_POINT('',(2.925999170547,3.603882807239));
#600 = CARTESIAN_POINT('',(2.927653086764,3.709550823072));
#601 = CARTESIAN_POINT('',(2.930412431132,3.81556896864));
#602 = CARTESIAN_POINT('',(2.934280456105,3.920901584739));
#603 = CARTESIAN_POINT('',(2.939256320529,4.024525015599));
#604 = CARTESIAN_POINT('',(2.94535484232,4.12537082342));
#605 = CARTESIAN_POINT('',(2.952515342915,4.222588935638));
#606 = CARTESIAN_POINT('',(2.960613649563,4.315539371123));
#607 = CARTESIAN_POINT('',(2.96953232457,4.40348445726));
#608 = CARTESIAN_POINT('',(2.979179977993,4.485902890331));
#609 = CARTESIAN_POINT('',(2.989356166514,4.561505582513));
#610 = CARTESIAN_POINT('',(3.000273038027,4.631858213507));
#611 = CARTESIAN_POINT('',(3.012155564374,4.698452082172));
#612 = CARTESIAN_POINT('',(3.024815513694,4.759918590144));
#613 = CARTESIAN_POINT('',(3.038176438918,4.815648747298));
#614 = CARTESIAN_POINT('',(3.052131330534,4.864855025986));
#615 = CARTESIAN_POINT('',(3.066587940729,4.906704440424));
#616 = CARTESIAN_POINT('',(3.081425447508,4.94081906313));
#617 = CARTESIAN_POINT('',(3.096494696745,4.967311604328));
#618 = CARTESIAN_POINT('',(3.111651993534,4.986191287697));
#619 = CARTESIAN_POINT('',(3.126752008248,4.997495075578));
#620 = CARTESIAN_POINT('',(3.136684249357,5.));
#621 = CARTESIAN_POINT('',(3.14159265359,5.));
#622 = ( GEOMETRIC_REPRESENTATION_CONTEXT(2) 
PARAMETRIC_REPRESENTATION_CONTEXT() REPRESENTATION_CONTEXT('2D SPACE',''
  ) );
#623 = ADVANCED_FACE('',(#624),#275,.F.);
#624 = FACE_BOUND('',#625,.F.);
#625 = EDGE_LOOP('',(#626,#649,#650,#673,#704,#705,#706,#707,#708));
#626 = ORIENTED_EDGE('',*,*,#627,.T.);
#627 = EDGE_CURVE('',#628,#201,#630,.T.);
#628 = VERTEX_POINT('',#629);
#629 = CARTESIAN_POINT('',(27.,56.,-140.));
#630 = SEAM_CURVE('',#631,(#635,#642),.PCURVE_S1.);
#631 = LINE('',#632,#633);
#632 = CARTESIAN_POINT('',(20.,56.,-140.));
#633 = VECTOR('',#634,1.);
#634 = DIRECTION('',(-1.,0.,0.));
#635 = PCURVE('',#275,#636);
#636 = DEFINITIONAL_REPRESENTATION('',(#637),#641);
#637 = LINE('',#638,#639);
#638 = CARTESIAN_POINT('',(-3.14159265359,0.));
#639 = VECTOR('',#640,1.);
#640 = DIRECTION('',(0.,-1.));
#641 = ( GEOMETRIC_REPRESENTATION_CONTEXT(2) 
PARAMETRIC_REPRESENTATION_CONTEXT() REPRESENTATION_CONTEXT('2D SPACE',''
  ) );
#642 = PCURVE('',#275,#643);
#643 = DEFINITIONAL_REPRESENTATION('',(#644),#648);
#644 = LINE('',#645,#646);
#645 = CARTESIAN_POINT('',(3.14159265359,0.));
#646 = VECTOR('',#647,1.);
#647 = DIRECTION('',(0.,-1.));
#648 = ( GEOMETRIC_REPRESENTATION_CONTEXT(2) 
PARAMETRIC_REPRESENTATION_CONTEXT() REPRESENTATION_CONTEXT('2D SPACE',''
  ) );
#649 = ORIENTED_EDGE('',*,*,#200,.F.);
#650 = ORIENTED_EDGE('',*,*,#651,.T.);
#651 = EDGE_CURVE('',#178,#652,#654,.T.);
#652 = VERTEX_POINT('',#653);
#653 = CARTESIAN_POINT('',(20.,56.,-140.));
#654 = SEAM_CURVE('',#655,(#659,#666),.PCURVE_S1.);
#655 = LINE('',#656,#657);
#656 = CARTESIAN_POINT('',(20.,56.,-140.));
#657 = VECTOR('',#658,1.);
#658 = DIRECTION('',(-1.,0.,0.));
#659 = PCURVE('',#275,#660);
#660 = DEFINITIONAL_REPRESENTATION('',(#661),#665);
#661 = LINE('',#662,#663);
#662 = CARTESIAN_POINT('',(-3.14159265359,0.));
#663 = VECTOR('',#664,1.);
#664 = DIRECTION('',(0.,-1.));
#665 = ( GEOMETRIC_REPRESENTATION_CONTEXT(2) 
PARAMETRIC_REPRESENTATION_CONTEXT() REPRESENTATION_CONTEXT('2D SPACE',''
  ) );
#666 = PCURVE('',#275,#667);
#667 = DEFINITIONAL_REPRESENTATION('',(#668),#672);
#668 = LINE('',#669,#670);
#669 = CARTESIAN_POINT('',(3.14159265359,0.));
#670 = VECTOR('',#671,1.);
#671 = DIRECTION('',(0.,-1.));
#672 = ( GEOMETRIC_REPRESENTATION_CONTEXT(2) 
PARAMETRIC_REPRESENTATION_CONTEXT() REPRESENTATION_CONTEXT('2D SPACE',''
  ) );
#673 = ORIENTED_EDGE('',*,*,#674,.F.);
#674 = EDGE_CURVE('',#652,#652,#675,.T.);
#675 = SURFACE_CURVE('',#676,(#681,#688),.PCURVE_S1.);
#676 = CIRCLE('',#677,4.);
#677 = AXIS2_PLACEMENT_3D('',#678,#679,#680);
#678 = CARTESIAN_POINT('',(20.,60.,-140.));
#679 = DIRECTION('',(-1.,-2.775557561563E-17,-2.775557561563E-17));
#680 = DIRECTION('',(-2.775557561563E-17,1.,0.));
#681 = PCURVE('',#275,#682);
#682 = DEFINITIONAL_REPRESENTATION('',(#683),#687);
#683 = LINE('',#684,#685);
#684 = CARTESIAN_POINT('',(6.28318530718,0.));
#685 = VECTOR('',#686,1.);
#686 = DIRECTION('',(-1.,0.));
#687 = ( GEOMETRIC_REPRESENTATION_CONTEXT(2) 
PARAMETRIC_REPRESENTATION_CONTEXT() REPRESENTATION_CONTEXT('2D SPACE',''
  ) );
#688 = PCURVE('',#689,#694);
#689 = PLANE('',#690);
#690 = AXIS2_PLACEMENT_3D('',#691,#692,#693);
#691 = CARTESIAN_POINT('',(20.,60.,-140.));
#692 = DIRECTION('',(1.,2.775557561563E-17,2.775557561563E-17));
#693 = DIRECTION('',(-2.775557561563E-17,1.,0.));
#694 = DEFINITIONAL_REPRESENTATION('',(#695),#703);
#695 = ( BOUNDED_CURVE() B_SPLINE_CURVE(2,(#696,#697,#698,#699,#700,#701
,#702),.UNSPECIFIED.,.T.,.F.) B_SPLINE_CURVE_WITH_KNOTS((1,2,2,2,2,1),(
    -2.094395102393,0.,2.094395102393,4.188790204786,6.28318530718,
8.377580409573),.UNSPECIFIED.) CURVE() GEOMETRIC_REPRESENTATION_ITEM() 
RATIONAL_B_SPLINE_CURVE((1.,0.5,1.,0.5,1.,0.5,1.)) REPRESENTATION_ITEM(
  '') );
#696 = CARTESIAN_POINT('',(4.,0.));
#697 = CARTESIAN_POINT('',(4.,-6.928203230276));
#698 = CARTESIAN_POINT('',(-2.,-3.464101615138));
#699 = CARTESIAN_POINT('',(-8.,-9.797174393179E-16));
#700 = CARTESIAN_POINT('',(-2.,3.464101615138));
#701 = CARTESIAN_POINT('',(4.,6.928203230276));
#702 = CARTESIAN_POINT('',(4.,0.));
#703 = ( GEOMETRIC_REPRESENTATION_CONTEXT(2) 
PARAMETRIC_REPRESENTATION_CONTEXT() REPRESENTATION_CONTEXT('2D SPACE',''
  ) );
#704 = ORIENTED_EDGE('',*,*,#651,.F.);
#705 = ORIENTED_EDGE('',*,*,#405,.F.);
#706 = ORIENTED_EDGE('',*,*,#331,.F.);
#707 = ORIENTED_EDGE('',*,*,#627,.F.);
#708 = ORIENTED_EDGE('',*,*,#709,.T.);
#709 = EDGE_CURVE('',#628,#628,#710,.T.);
#710 = SURFACE_CURVE('',#711,(#716,#723),.PCURVE_S1.);
#711 = CIRCLE('',#712,4.);
#712 = AXIS2_PLACEMENT_3D('',#713,#714,#715);
#713 = CARTESIAN_POINT('',(27.,60.,-140.));
#714 = DIRECTION('',(-1.,-2.775557561563E-17,-2.775557561563E-17));
#715 = DIRECTION('',(-2.775557561563E-17,1.,0.));
#716 = PCURVE('',#275,#717);
#717 = DEFINITIONAL_REPRESENTATION('',(#718),#722);
#718 = LINE('',#719,#720);
#719 = CARTESIAN_POINT('',(6.28318530718,7.));
#720 = VECTOR('',#721,1.);
#721 = DIRECTION('',(-1.,0.));
#722 = ( GEOMETRIC_REPRESENTATION_CONTEXT(2) 
PARAMETRIC_REPRESENTATION_CONTEXT() REPRESENTATION_CONTEXT('2D SPACE',''
  ) );
#723 = PCURVE('',#724,#729);
#724 = PLANE('',#725);
#725 = AXIS2_PLACEMENT_3D('',#726,#727,#728);
#726 = CARTESIAN_POINT('',(27.,60.,-140.));
#727 = DIRECTION('',(1.,2.775557561563E-17,2.775557561563E-17));
#728 = DIRECTION('',(-2.775557561563E-17,1.,0.));
#729 = DEFINITIONAL_REPRESENTATION('',(#730),#738);
#730 = ( BOUNDED_CURVE() B_SPLINE_CURVE(2,(#731,#732,#733,#734,#735,#736
,#737),.UNSPECIFIED.,.T.,.F.) B_SPLINE_CURVE_WITH_KNOTS((1,2,2,2,2,1),(
    -2.094395102393,0.,2.094395102393,4.188790204786,6.28318530718,
8.377580409573),.UNSPECIFIED.) CURVE() GEOMETRIC_REPRESENTATION_ITEM() 
RATIONAL_B_SPLINE_CURVE((1.,0.5,1.,0.5,1.,0.5,1.)) REPRESENTATION_ITEM(
  '') );
#731 = CARTESIAN_POINT('',(4.,0.));
#732 = CARTESIAN_POINT('',(4.,-6.928203230276));
#733 = CARTESIAN_POINT('',(-2.,-3.464101615138));
#734 = CARTESIAN_POINT('',(-8.,-9.797174393179E-16));
#735 = CARTESIAN_POINT('',(-2.,3.464101615138));
#736 = CARTESIAN_POINT('',(4.,6.928203230276));
#737 = CARTESIAN_POINT('',(4.,0.));
#738 = ( GEOMETRIC_REPRESENTATION_CONTEXT(2) 
PARAMETRIC_REPRESENTATION_CONTEXT() REPRESENTATION_CONTEXT('2D SPACE',''
  ) );
#739 = ADVANCED_FACE('',(#740),#121,.T.);
#740 = FACE_BOUND('',#741,.T.);
#741 = EDGE_LOOP('',(#742,#766,#787,#788,#811,#833,#834,#835,#836));
#742 = ORIENTED_EDGE('',*,*,#743,.F.);
#743 = EDGE_CURVE('',#744,#744,#746,.T.);
#744 = VERTEX_POINT('',#745);
#745 = CARTESIAN_POINT('',(27.,53.,-140.));
#746 = SURFACE_CURVE('',#747,(#752,#759),.PCURVE_S1.);
#747 = CIRCLE('',#748,7.);
#748 = AXIS2_PLACEMENT_3D('',#749,#750,#751);
#749 = CARTESIAN_POINT('',(27.,60.,-140.));
#750 = DIRECTION('',(1.,2.775557561563E-17,2.775557561563E-17));
#751 = DIRECTION('',(-2.775557561563E-17,1.,0.));
#752 = PCURVE('',#121,#753);
#753 = DEFINITIONAL_REPRESENTATION('',(#754),#758);
#754 = LINE('',#755,#756);
#755 = CARTESIAN_POINT('',(-6.28318530718,7.));
#756 = VECTOR('',#757,1.);
#757 = DIRECTION('',(1.,0.));
#758 = ( GEOMETRIC_REPRESENTATION_CONTEXT(2) 
PARAMETRIC_REPRESENTATION_CONTEXT() REPRESENTATION_CONTEXT('2D SPACE',''
  ) );
#759 = PCURVE('',#724,#760);
#760 = DEFINITIONAL_REPRESENTATION('',(#761),#765);
#761 = CIRCLE('',#762,7.);
#762 = AXIS2_PLACEMENT_2D('',#763,#764);
#763 = CARTESIAN_POINT('',(0.,0.));
#764 = DIRECTION('',(1.,0.));
#765 = ( GEOMETRIC_REPRESENTATION_CONTEXT(2) 
PARAMETRIC_REPRESENTATION_CONTEXT() REPRESENTATION_CONTEXT('2D SPACE',''
  ) );
#766 = ORIENTED_EDGE('',*,*,#767,.T.);
#767 = EDGE_CURVE('',#744,#40,#768,.T.);
#768 = SEAM_CURVE('',#769,(#773,#780),.PCURVE_S1.);
#769 = LINE('',#770,#771);
#770 = CARTESIAN_POINT('',(20.,53.,-140.));
#771 = VECTOR('',#772,1.);
#772 = DIRECTION('',(-1.,0.,0.));
#773 = PCURVE('',#121,#774);
#774 = DEFINITIONAL_REPRESENTATION('',(#775),#779);
#775 = LINE('',#776,#777);
#776 = CARTESIAN_POINT('',(-3.14159265359,0.));
#777 = VECTOR('',#778,1.);
#778 = DIRECTION('',(0.,-1.));
#779 = ( GEOMETRIC_REPRESENTATION_CONTEXT(2) 
PARAMETRIC_REPRESENTATION_CONTEXT() REPRESENTATION_CONTEXT('2D SPACE',''
  ) );
#780 = PCURVE('',#121,#781);
#781 = DEFINITIONAL_REPRESENTATION('',(#782),#786);
#782 = LINE('',#783,#784);
#783 = CARTESIAN_POINT('',(3.14159265359,0.));
#784 = VECTOR('',#785,1.);
#785 = DIRECTION('',(0.,-1.));
#786 = ( GEOMETRIC_REPRESENTATION_CONTEXT(2) 
PARAMETRIC_REPRESENTATION_CONTEXT() REPRESENTATION_CONTEXT('2D SPACE',''
  ) );
#787 = ORIENTED_EDGE('',*,*,#39,.T.);
#788 = ORIENTED_EDGE('',*,*,#789,.T.);
#789 = EDGE_CURVE('',#42,#790,#792,.T.);
#790 = VERTEX_POINT('',#791);
#791 = CARTESIAN_POINT('',(20.,53.,-140.));
#792 = SEAM_CURVE('',#793,(#797,#804),.PCURVE_S1.);
#793 = LINE('',#794,#795);
#794 = CARTESIAN_POINT('',(20.,53.,-140.));
#795 = VECTOR('',#796,1.);
#796 = DIRECTION('',(-1.,0.,0.));
#797 = PCURVE('',#121,#798);
#798 = DEFINITIONAL_REPRESENTATION('',(#799),#803);
#799 = LINE('',#800,#801);
#800 = CARTESIAN_POINT('',(-3.14159265359,0.));
#801 = VECTOR('',#802,1.);
#802 = DIRECTION('',(0.,-1.));
#803 = ( GEOMETRIC_REPRESENTATION_CONTEXT(2) 
PARAMETRIC_REPRESENTATION_CONTEXT() REPRESENTATION_CONTEXT('2D SPACE',''
  ) );
#804 = PCURVE('',#121,#805);
#805 = DEFINITIONAL_REPRESENTATION('',(#806),#810);
#806 = LINE('',#807,#808);
#807 = CARTESIAN_POINT('',(3.14159265359,0.));
#808 = VECTOR('',#809,1.);
#809 = DIRECTION('',(0.,-1.));
#810 = ( GEOMETRIC_REPRESENTATION_CONTEXT(2) 
PARAMETRIC_REPRESENTATION_CONTEXT() REPRESENTATION_CONTEXT('2D SPACE',''
  ) );
#811 = ORIENTED_EDGE('',*,*,#812,.T.);
#812 = EDGE_CURVE('',#790,#790,#813,.T.);
#813 = SURFACE_CURVE('',#814,(#819,#826),.PCURVE_S1.);
#814 = CIRCLE('',#815,7.);
#815 = AXIS2_PLACEMENT_3D('',#816,#817,#818);
#816 = CARTESIAN_POINT('',(20.,60.,-140.));
#817 = DIRECTION('',(1.,2.775557561563E-17,2.775557561563E-17));
#818 = DIRECTION('',(-2.775557561563E-17,1.,0.));
#819 = PCURVE('',#121,#820);
#820 = DEFINITIONAL_REPRESENTATION('',(#821),#825);
#821 = LINE('',#822,#823);
#822 = CARTESIAN_POINT('',(-6.28318530718,0.));
#823 = VECTOR('',#824,1.);
#824 = DIRECTION('',(1.,0.));
#825 = ( GEOMETRIC_REPRESENTATION_CONTEXT(2) 
PARAMETRIC_REPRESENTATION_CONTEXT() REPRESENTATION_CONTEXT('2D SPACE',''
  ) );
#826 = PCURVE('',#689,#827);
#827 = DEFINITIONAL_REPRESENTATION('',(#828),#832);
#828 = CIRCLE('',#829,7.);
#829 = AXIS2_PLACEMENT_2D('',#830,#831);
#830 = CARTESIAN_POINT('',(0.,0.));
#831 = DIRECTION('',(1.,0.));
#832 = ( GEOMETRIC_REPRESENTATION_CONTEXT(2) 
PARAMETRIC_REPRESENTATION_CONTEXT() REPRESENTATION_CONTEXT('2D SPACE',''
  ) );
#833 = ORIENTED_EDGE('',*,*,#789,.F.);
#834 = ORIENTED_EDGE('',*,*,#478,.T.);
#835 = ORIENTED_EDGE('',*,*,#552,.T.);
#836 = ORIENTED_EDGE('',*,*,#767,.F.);
#837 = ADVANCED_FACE('',(#838,#841),#724,.T.);
#838 = FACE_BOUND('',#839,.T.);
#839 = EDGE_LOOP('',(#840));
#840 = ORIENTED_EDGE('',*,*,#743,.T.);
#841 = FACE_BOUND('',#842,.T.);
#842 = EDGE_LOOP('',(#843));
#843 = ORIENTED_EDGE('',*,*,#709,.T.);
#844 = ADVANCED_FACE('',(#845,#848),#689,.F.);
#845 = FACE_BOUND('',#846,.T.);
#846 = EDGE_LOOP('',(#847));
#847 = ORIENTED_EDGE('',*,*,#812,.F.);
#848 = FACE_BOUND('',#849,.T.);
#849 = EDGE_LOOP('',(#850));
#850 = ORIENTED_EDGE('',*,*,#674,.F.);
#851 = ( GEOMETRIC_REPRESENTATION_CONTEXT(3) 
GLOBAL_UNCERTAINTY_ASSIGNED_CONTEXT((#855)) GLOBAL_UNIT_ASSIGNED_CONTEXT
((#852,#853,#854)) REPRESENTATION_CONTEXT('Context #1',
  '3D Context with UNIT and UNCERTAINTY') );
#852 = ( LENGTH_UNIT() NAMED_UNIT(*) SI_UNIT(.MILLI.,.METRE.) );
#853 = ( NAMED_UNIT(*) PLANE_ANGLE_UNIT() SI_UNIT($,.RADIAN.) );
#854 = ( NAMED_UNIT(*) SI_UNIT($,.STERADIAN.) SOLID_ANGLE_UNIT() );
#855 = UNCERTAINTY_MEASURE_WITH_UNIT(LENGTH_MEASURE(2.E-04),#852,
  'distance_accuracy_value','confusion accuracy');
#856 = CONTEXT_DEPENDENT_SHAPE_REPRESENTATION(#857,#859);
#857 = ( REPRESENTATION_RELATIONSHIP('','',#32,#10) 
REPRESENTATION_RELATIONSHIP_WITH_TRANSFORMATION(#858) 
SHAPE_REPRESENTATION_RELATIONSHIP() );
#858 = ITEM_DEFINED_TRANSFORMATION('','',#11,#15);
#859 = PRODUCT_DEFINITION_SHAPE('Placement','Placement of an item',#860
  );
#860 = NEXT_ASSEMBLY_USAGE_OCCURRENCE('10','=>[0:1:1:2]','',#5,#27,$);
#861 = PRODUCT_RELATED_PRODUCT_CATEGORY('part',$,(#29));
ENDSEC;
END-ISO-10303-21;
